<svg width="8" height="11" viewBox="0 0 8 11" fill="none" xmlns="http://www.w3.org/2000/svg">
<path d="M0.696328 4.302H7.71033V3.63H0.696328V4.302ZM0.696328 5.982H7.34633V5.31H0.696328V5.982ZM2.65633 5.1C2.65633 4.33467 2.78233 3.658 3.03433 3.07C3.28633 2.482 3.63633 2.02 4.08433 1.684C4.54166 1.348 5.069 1.18 5.66633 1.18C6.469 1.18 7.169 1.46933 7.76633 2.048V0.634C7.449 0.447333 7.113 0.307333 6.75833 0.213999C6.41299 0.111333 6.04899 0.0599995 5.66633 0.0599995C5.05966 0.0599995 4.49966 0.186 3.98633 0.438C3.47299 0.680666 3.02499 1.03067 2.64233 1.488C2.26899 1.936 1.97966 2.468 1.77433 3.084C1.56899 3.7 1.46633 4.372 1.46633 5.1C1.46633 6.08 1.64833 6.948 2.01233 7.704C2.37633 8.46 2.87099 9.05733 3.49633 9.496C4.131 9.92533 4.85433 10.14 5.66633 10.14C6.04899 10.14 6.41299 10.0887 6.75833 9.986C7.113 9.88333 7.449 9.74333 7.76633 9.566V8.152C7.169 8.73067 6.469 9.02 5.66633 9.02C5.069 9.02 4.54166 8.852 4.08433 8.516C3.63633 8.18 3.28633 7.718 3.03433 7.13C2.78233 6.53267 2.65633 5.856 2.65633 5.1Z" fill="white"/>
</svg>
