<svg width="9" height="10" viewBox="0 0 9 10" fill="none" xmlns="http://www.w3.org/2000/svg">
<path d="M2.18301 0.199999V10H3.37301V0.199999H2.18301ZM2.77101 1.32H4.91301C5.40767 1.32 5.83234 1.38533 6.18701 1.516C6.55101 1.63733 6.83101 1.82867 7.02701 2.09C7.23234 2.342 7.33501 2.66867 7.33501 3.07C7.33501 3.47133 7.23234 3.80267 7.02701 4.064C6.83101 4.316 6.55101 4.50733 6.18701 4.638C5.83234 4.75933 5.40767 4.82 4.91301 4.82H2.77101V5.94H4.91301C5.54767 5.94 6.13101 5.84667 6.66301 5.66C7.20434 5.47333 7.63834 5.17 7.96501 4.75C8.29168 4.32067 8.45501 3.76067 8.45501 3.07C8.45501 2.37 8.29168 1.81 7.96501 1.39C7.63834 0.97 7.20434 0.666666 6.66301 0.48C6.13101 0.293333 5.54767 0.199999 4.91301 0.199999H2.77101V1.32ZM3.16301 8.53H5.96301V7.48H3.16301V8.53ZM0.503008 5.94H3.30301V4.89H0.503008V5.94ZM0.503008 8.53H3.30301V7.48H0.503008V8.53Z" fill="white"/>
</svg>
