<svg width="16" height="12" viewBox="0 0 16 12" fill="none" xmlns="http://www.w3.org/2000/svg">
<path d="M2.28571 0C1.34571 0 0.571429 0.774286 0.571429 1.71429V5.58857C0.222857 5.904 0 6.35543 0 6.85714V12H2.85714V10.8571H13.1429V12H16V6.85714C16 6.35543 15.7771 5.904 15.4286 5.58857V1.71429C15.4286 0.774286 14.6543 0 13.7143 0H2.28571ZM2.28571 1.14286H13.7143C14.0314 1.14286 14.2857 1.39714 14.2857 1.71429V5.14286H13.1429V4.57143C13.1429 3.63143 12.3686 2.85714 11.4286 2.85714H9.14286C8.70457 2.85714 8.30457 3.02857 8 3.30286C7.6875 3.0177 7.28019 2.85885 6.85714 2.85714H4.57143C3.63143 2.85714 2.85714 3.63143 2.85714 4.57143V5.14286H1.71429V1.71429C1.71429 1.39714 1.96857 1.14286 2.28571 1.14286ZM4.57143 4H6.85714C7.17429 4 7.42857 4.25429 7.42857 4.57143V5.14286H4V4.57143C4 4.25429 4.25429 4 4.57143 4ZM9.14286 4H11.4286C11.7457 4 12 4.25429 12 4.57143V5.14286H8.57143V4.57143C8.57143 4.25429 8.82572 4 9.14286 4ZM1.71429 6.28571H14.2857C14.6029 6.28571 14.8571 6.54 14.8571 6.85714V10.8571H14.2857V9.71429H1.71429V10.8571H1.14286V6.85714C1.14286 6.54 1.39714 6.28571 1.71429 6.28571Z" fill="#E0BB7F"/>
</svg>
