<svg width="17" height="13" viewBox="0 0 17 13" fill="none" xmlns="http://www.w3.org/2000/svg">
<path d="M11.3327 0.888889C11.3327 0.397222 11.7299 0 12.2216 0H15.7771C16.2688 0 16.666 0.397222 16.666 0.888889C16.666 1.38056 16.2688 1.77778 15.7771 1.77778H13.1105V4.44444C13.1105 4.93611 12.7132 5.33333 12.2216 5.33333H9.5549V8C9.5549 8.49167 9.15768 8.88889 8.66602 8.88889H5.99935V11.5556C5.99935 12.0472 5.60213 12.4444 5.11046 12.4444H1.5549C1.06324 12.4444 0.666016 12.0472 0.666016 11.5556C0.666016 11.0639 1.06324 10.6667 1.5549 10.6667H4.22157V8C4.22157 7.50833 4.61879 7.11111 5.11046 7.11111H7.77713V4.44444C7.77713 3.95278 8.17435 3.55556 8.66602 3.55556H11.3327V0.888889Z" fill="#E0BB7F"/>
</svg>
