<svg width="21" height="20" viewBox="0 0 21 20" fill="none" xmlns="http://www.w3.org/2000/svg">
<path d="M10.2452 0C8.73118 0 4.98642 0.159054 2.99435 2.07143C1.56007 3.42604 1.0026 5.49809 0.92292 7.96825C0.763555 11.8727 1.63944 14.3425 3.07372 15.6175C3.39245 15.8565 4.1899 16.4949 5.70387 16.973V18.9651C5.70387 18.9651 5.70356 19.7613 6.18165 19.9206C6.26134 19.9206 6.34164 20 6.42132 20C6.89942 20 7.2969 19.4419 7.85468 18.8841C8.33277 18.3264 8.73149 17.9286 8.97054 17.5302H10.0864H10.7245C12.2385 17.5302 15.9832 17.3711 17.9753 15.4587C19.4096 14.0244 19.9674 11.9518 19.9674 9.32223C20.047 8.92382 20.0467 8.44635 20.0467 7.96825C19.967 5.02 19.0912 3.02825 17.8959 1.91269C17.4178 1.51428 15.3455 0 10.8832 0H10.2452ZM10.0864 1.51428H10.6436H10.7245H10.8039C15.027 1.51428 16.6207 2.86919 16.7801 3.02856C17.7362 3.82538 18.294 5.57809 18.3737 7.88888V8.20792C18.4534 8.68602 18.4531 9.08318 18.4531 9.32223C18.3734 11.7127 17.895 13.307 16.9388 14.3429C15.2655 15.8568 11.7601 15.9365 10.8039 15.9365H10.2452H10.1658H10.0864H9.28958L8.01497 17.3714L7.21815 18.2476L7.05785 18.4857C6.89849 18.6451 6.66006 18.9648 6.5007 19.0444V18.8841V15.4587C4.90705 15.0603 4.26959 14.5022 4.11022 14.3429C2.99466 13.3867 2.3572 11.0759 2.51657 7.96825V7.17143C2.67593 5.25905 3.15465 3.98444 3.95148 3.10793C5.62481 1.59396 9.13022 1.51428 10.0864 1.51428ZM10.007 3.26667C9.60862 3.26667 9.60862 3.82538 10.007 3.82538C12.9553 3.82538 15.5054 5.81682 15.5054 9.5619C15.5054 9.96031 16.0626 9.96031 16.0626 9.5619C16.0626 5.49809 13.3537 3.18699 10.007 3.26667ZM6.84931 4.00436C6.67998 3.98444 6.50132 4.02334 6.34195 4.14287C5.54513 4.54128 4.74737 5.33935 4.98642 6.21586C4.98642 6.21586 5.1464 6.93207 6.02291 8.44604C6.50101 9.16318 6.89911 9.80126 7.29752 10.2794C7.69593 10.8371 8.33308 11.4743 8.97054 11.9524C10.2455 12.9883 12.2385 14.0244 13.115 14.2635C13.9118 14.5025 14.788 13.7048 15.1864 12.9079C15.3458 12.5892 15.2655 12.1914 14.9467 11.9524C14.4686 11.4743 13.6727 10.9171 13.115 10.5984C12.7166 10.3593 12.2378 10.5181 12.0785 10.7571L11.6801 11.2349C11.5207 11.474 11.1229 11.4746 11.1229 11.4746C8.49338 10.7575 7.7753 8.04762 7.7753 8.04762C7.7753 8.04762 7.77593 7.72952 8.01497 7.49047L8.49276 7.09206C8.73181 6.93269 8.89055 6.45397 8.6515 6.05556C8.49214 5.81651 8.25402 5.33904 8.01497 5.09999C7.77593 4.78126 7.29752 4.2238 7.29752 4.2238C7.178 4.10427 7.01863 4.02428 6.84931 4.00436ZM10.5642 4.86032C10.1658 4.78064 10.0864 5.41903 10.4848 5.41903C12.7159 5.5784 13.9915 7.09237 13.9118 9.00475C13.8321 9.40316 14.4689 9.40316 14.4689 9.00475C14.5486 6.77364 13.114 4.94 10.5642 4.86032ZM10.8039 6.3746C10.4054 6.29492 10.4054 6.93176 10.8039 6.93176C11.7601 6.93176 12.2372 7.48985 12.2372 8.44604C12.3169 8.84445 12.8753 8.84445 12.8753 8.44604C12.7956 7.17112 12.0788 6.3746 10.8039 6.3746Z" fill="white"/>
</svg>
